<svg xmlns="http://www.w3.org/2000/svg" width="34" height="34" viewBox="0 0 34 34">
  <g id="Grupo_860" data-name="Grupo 860" transform="translate(-2333 -689)">
    <rect id="Rectángulo_195" data-name="Rectángulo 195" width="34" height="34" transform="translate(2333 689)" fill="#fff" opacity="0"/>
    <g id="Grupo_2" data-name="Grupo 2" transform="translate(2343 694)">
      <path id="Trazado_2" data-name="Trazado 2" d="M624.768,148.229h-3.734a.747.747,0,1,0,0,1.494h3.734a.747.747,0,0,0,0-1.494Z" transform="translate(-615.293 -145.242)" fill="#1c2c3a"/>
      <path id="Trazado_3" data-name="Trazado 3" d="M623.928,143.074h-9.4a2.866,2.866,0,0,0-2.862,2.862v19.105a2.866,2.866,0,0,0,2.862,2.862h9.4a2.866,2.866,0,0,0,2.862-2.862V145.936A2.866,2.866,0,0,0,623.928,143.074Zm1.369,21.968a1.371,1.371,0,0,1-1.369,1.369h-9.4a1.371,1.371,0,0,1-1.369-1.369V145.936a1.371,1.371,0,0,1,1.369-1.369h9.4a1.371,1.371,0,0,1,1.369,1.369Z" transform="translate(-611.669 -143.074)" fill="#1c2c3a"/>
      <path id="Trazado_4" data-name="Trazado 4" d="M624.688,177.465h-3.734a.747.747,0,0,0,0,1.494h3.734a.747.747,0,0,0,0-1.494Z" transform="translate(-615.26 -157.538)" fill="#1c2c3a"/>
    </g>
  </g>
</svg>
