<svg xmlns="http://www.w3.org/2000/svg" width="34" height="34" viewBox="0 0 34 34">
  <g id="Grupo_862" data-name="Grupo 862" transform="translate(-2335 -763)">
    <rect id="Rectángulo_197" data-name="Rectángulo 197" width="34" height="34" transform="translate(2335 763)" fill="#fff" opacity="0"/>
    <g id="Grupo_4" data-name="Grupo 4" transform="translate(2340 769)">
      <path id="Trazado_9" data-name="Trazado 9" d="M806.373,149.2h-18.8a3.126,3.126,0,0,0-3.123,3.123V164a3.126,3.126,0,0,0,3.123,3.123h1.561v3.1a1.5,1.5,0,0,0,.9,1.389,1.525,1.525,0,0,0,.626.135,1.508,1.508,0,0,0,1.01-.392l4.717-4.233h9.989A3.126,3.126,0,0,0,809.5,164V152.319A3.126,3.126,0,0,0,806.373,149.2Zm1.494,14.8a1.5,1.5,0,0,1-1.494,1.493H795.76l-5,4.488v-4.488h-3.19A1.5,1.5,0,0,1,786.075,164V152.319a1.5,1.5,0,0,1,1.494-1.494h18.8a1.5,1.5,0,0,1,1.494,1.494Z" transform="translate(-784.445 -149.196)" fill="#1c2c3a"/>
      <path id="Trazado_10" data-name="Trazado 10" d="M797.477,161.439a1.234,1.234,0,1,0,1.233,1.234A1.234,1.234,0,0,0,797.477,161.439Z" transform="translate(-790.539 -154.017)" fill="#1c2c3a"/>
      <path id="Trazado_11" data-name="Trazado 11" d="M804.044,161.439a1.234,1.234,0,1,0,1.234,1.234A1.234,1.234,0,0,0,804.044,161.439Z" transform="translate(-791.519 -154.017)" fill="#1c2c3a"/>
      <path id="Trazado_12" data-name="Trazado 12" d="M810.612,161.439a1.234,1.234,0,1,0,1.234,1.234A1.233,1.233,0,0,0,810.612,161.439Z" transform="translate(-792.499 -154.017)" fill="#1c2c3a"/>
    </g>
  </g>
</svg>
