<svg xmlns="http://www.w3.org/2000/svg" width="34" height="34" viewBox="0 0 34 34">
  <g id="Grupo_861" data-name="Grupo 861" transform="translate(-2374 -694)">
    <rect id="Rectángulo_196" data-name="Rectángulo 196" width="34" height="34" transform="translate(2374 694)" fill="#fff" opacity="0"/>
    <g id="Grupo_16" data-name="Grupo 16" transform="translate(2378 701)">
      <path id="Trazado_5" data-name="Trazado 5" d="M715.311,173.9a2.457,2.457,0,1,0,2.457,2.457A2.46,2.46,0,0,0,715.311,173.9Zm0,3.42a.963.963,0,1,1,.963-.964A.965.965,0,0,1,715.311,177.325Z" transform="translate(-702.173 -158.092)" fill="#1c2c3a"/>
      <path id="Trazado_6" data-name="Trazado 6" d="M713.081,165.182a7.464,7.464,0,0,0-5.312,2.2.747.747,0,0,0,1.056,1.056,6.017,6.017,0,0,1,8.51,0,.747.747,0,0,0,1.056-1.056A7.464,7.464,0,0,0,713.081,165.182Z" transform="translate(-699.943 -154.423)" fill="#1c2c3a"/>
      <path id="Trazado_7" data-name="Trazado 7" d="M710.37,156.065a12.71,12.71,0,0,0-9.047,3.747.747.747,0,0,0,1.056,1.056,11.3,11.3,0,0,1,15.981,0,.747.747,0,1,0,1.056-1.056A12.709,12.709,0,0,0,710.37,156.065Z" transform="translate(-697.232 -150.589)" fill="#1c2c3a"/>
      <path id="Trazado_8" data-name="Trazado 8" d="M720.478,151.966a18.269,18.269,0,0,0-25.838,0,.747.747,0,0,0,1.056,1.056,16.778,16.778,0,0,1,23.726,0,.746.746,0,0,0,1.056-1.056Z" transform="translate(-694.421 -146.614)" fill="#1c2c3a"/>
    </g>
  </g>
</svg>
