<svg xmlns="http://www.w3.org/2000/svg" width="34" height="34" viewBox="0 0 34 34">
  <g id="Grupo_859" data-name="Grupo 859" transform="translate(-2268 -682)">
    <g id="Grupo_858" data-name="Grupo 858" transform="translate(2273 687)">
      <path id="Trazado_1" data-name="Trazado 1" d="M534.263,169.541a2.718,2.718,0,0,1-.335-.021,23.511,23.511,0,0,1-5.992-1.5,21.534,21.534,0,0,1-10.309-8.184,23.619,23.619,0,0,1-3.81-10.254l-.073-.59v-.059a2.757,2.757,0,0,1,1.757-2.524l1.1-.429c.918-.357,1.869-.725,2.8-1.1a2.065,2.065,0,0,1,2.459.4,2.722,2.722,0,0,1,.411.6l.022.041q1.353,2.478,2.7,4.96a2.051,2.051,0,0,1-.437,2.748q-.468.447-.934.9-.62.6-1.243,1.191.289.366.573.734c.532.686,1.083,1.4,1.662,2.039a16.342,16.342,0,0,0,2.877,2.386q.672-.687,1.338-1.364l.87-.887a2.027,2.027,0,0,1,2.589-.386q2.588,1.415,5.179,2.826a1.979,1.979,0,0,1,.975,2.531c-.443,1.176-1.032,2.726-1.649,4.274A2.731,2.731,0,0,1,534.263,169.541Zm-18.887-20.628.058.47a22,22,0,0,0,3.551,9.552,19.962,19.962,0,0,0,9.56,7.573,21.925,21.925,0,0,0,5.583,1.4,1.12,1.12,0,0,0,1.153-.629c.612-1.536,1.2-3.076,1.638-4.245.063-.168.1-.348-.229-.526q-2.592-1.411-5.181-2.826a.427.427,0,0,0-.644.1l-.871.888q-.786.8-1.571,1.6a1.13,1.13,0,0,1-1.516.192,19.075,19.075,0,0,1-3.5-2.867c-.621-.688-1.19-1.422-1.741-2.132-.259-.333-.516-.666-.78-.994a1.174,1.174,0,0,1,.131-1.69c.5-.468.987-.941,1.477-1.413l.938-.9c.342-.326.351-.386.131-.793q-1.346-2.48-2.7-4.956l-.024-.044a1.59,1.59,0,0,0-.159-.258c-.1-.107-.2-.207-.672-.016-.937.376-1.892.746-2.815,1.1l-1.1.428A1.117,1.117,0,0,0,515.376,148.913Z" transform="translate(-513.744 -144.658)" fill="#1c2c3a"/>
    </g>
    <rect id="Rectángulo_125" data-name="Rectángulo 125" width="34" height="34" transform="translate(2268 682)" fill="#fff" opacity="0"/>
  </g>
</svg>
