<svg xmlns="http://www.w3.org/2000/svg" width="34.247" height="26.689" viewBox="0 0 34.247 26.689">
  <g id="Grupo_295" data-name="Grupo 295" transform="translate(-1483.111 -143.625)">
    <g id="Grupo_291" data-name="Grupo 291" transform="translate(1496.662 157.032)">
      <path id="Trazado_93" data-name="Trazado 93" d="M1515.224,178.44c-3.1,0-10.348,0-10.348-5.468,0-4.309,4.642-7.814,10.348-7.814s10.348,3.505,10.348,7.814C1525.572,178.44,1518.32,178.44,1515.224,178.44Zm0-11.665c-4.814,0-8.731,2.78-8.731,6.2,0,2.7,2.611,3.851,8.731,3.851s8.731-1.152,8.731-3.851C1523.955,169.555,1520.038,166.775,1515.224,166.775Z" transform="translate(-1504.876 -165.158)" fill="#1c7cd5"/>
    </g>
    <g id="Grupo_292" data-name="Grupo 292" transform="translate(1502.191 145.947)">
      <path id="Trazado_94" data-name="Trazado 94" d="M1518.575,156.993a4.819,4.819,0,1,1,4.819-4.82A4.825,4.825,0,0,1,1518.575,156.993Zm0-8.022a3.2,3.2,0,1,0,3.2,3.2A3.206,3.206,0,0,0,1518.575,148.971Z" transform="translate(-1513.756 -147.354)" fill="#1c7cd5"/>
    </g>
    <g id="Grupo_293" data-name="Grupo 293" transform="translate(1488.64 143.625)">
      <path id="Trazado_95" data-name="Trazado 95" d="M1496.811,153.264a4.819,4.819,0,1,1,4.82-4.82A4.825,4.825,0,0,1,1496.811,153.264Zm0-8.022a3.2,3.2,0,1,0,3.2,3.2A3.206,3.206,0,0,0,1496.811,145.242Z" transform="translate(-1491.991 -143.625)" fill="#1c7cd5"/>
    </g>
    <g id="Grupo_294" data-name="Grupo 294" transform="translate(1483.111 154.709)">
      <path id="Trazado_96" data-name="Trazado 96" d="M1496.837,172.936a32.25,32.25,0,0,1-3.378.158c-6.12,0-8.731-1.152-8.731-3.851,0-3.417,3.917-6.2,8.731-6.2a10.23,10.23,0,0,1,6.978,2.488,11.036,11.036,0,0,1,1.49-.768,11.6,11.6,0,0,0-8.468-3.337c-5.706,0-10.348,3.506-10.348,7.815,0,5.468,7.252,5.468,10.348,5.468a30.24,30.24,0,0,0,4.181-.22A4.138,4.138,0,0,1,1496.837,172.936Z" transform="translate(-1483.111 -161.428)" fill="#1c7cd5"/>
    </g>
  </g>
</svg>
