<?xml version="1.0" encoding="utf-8"?>
<!-- Generator: Adobe Illustrator 25.0.1, SVG Export Plug-In . SVG Version: 6.00 Build 0)  -->
<svg version="1.1" id="Layer_1" xmlns="http://www.w3.org/2000/svg" xmlns:xlink="http://www.w3.org/1999/xlink" x="0px" y="0px"
	 viewBox="0 0 35 35" style="enable-background:new 0 0 35 35;" xml:space="preserve">
<style type="text/css">
	.st0{fill:#1C7CD5;}
</style>
<g id="Grupo_443" transform="translate(-11.275 -11.275)">
	<path id="Trazado_150" class="st0" d="M28.8,17.8c-6.1,0-11,4.9-11,11s4.9,11,11,11s11-4.9,11-11l0,0
		C39.8,22.7,34.8,17.8,28.8,17.8z M28.8,38.4c-5.3,0-9.6-4.3-9.6-9.6c0-5.3,4.3-9.6,9.6-9.6c5.3,0,9.6,4.3,9.6,9.6l0,0
		C38.4,34.1,34.1,38.4,28.8,38.4z"/>
	<path id="Trazado_151" class="st0" d="M34.3,28.8c0-0.4-0.3-0.7-0.7-0.7l0,0h-4.1V24c0-0.4-0.3-0.7-0.7-0.7c-0.4,0-0.7,0.3-0.7,0.7
		v4.1H24c-0.4,0-0.7,0.3-0.7,0.7s0.3,0.7,0.7,0.7H28v4.1c0,0.4,0.3,0.7,0.7,0.7c0.4,0,0.7-0.3,0.7-0.7l0,0v-4.1h4.1
		C34,29.5,34.3,29.2,34.3,28.8C34.3,28.8,34.3,28.8,34.3,28.8z"/>
</g>
</svg>
