<svg id="Grupo_9" data-name="Grupo 9" xmlns="http://www.w3.org/2000/svg" width="49.696" height="49.457" viewBox="0 0 49.696 49.457">
  <path id="Trazado_5" data-name="Trazado 5" d="M2420.526,1439.731a24.848,24.848,0,0,0-5.251,49.135,1.282,1.282,0,0,0,.215.031c3.372-3.676,7.152-12,5.514-21.186-4.6,2.846-2.146,8.82-8.84,12.312-2.956-8.7,4.779-12.407,8.617-13.444a13.233,13.233,0,0,0-4.97-.085,7.37,7.37,0,0,0-2.363-2.307,5.05,5.05,0,0,1-.02,2.958,15.393,15.393,0,0,1-4.932,1.783,3.645,3.645,0,0,1-1.762-4.47,3.676,3.676,0,0,0-1.28,4.578,10.447,10.447,0,0,1-4.778-1.486c5.989-8.619,14.624-6.046,18.507-3.446-2.9-3.381-5.663-3.176-8.38-4.56a3.461,3.461,0,0,1,1.266-3.857c-2.432-.118-3.4,2.484-3.4,2.484a12.051,12.051,0,0,1-4.061-5.7,12.9,12.9,0,0,1,14.658,7c-.413-5.56,1.262-10.771,7.823-13.74a12.708,12.708,0,0,1,.226,6.513,3.752,3.752,0,0,0-3.077.034,3.645,3.645,0,0,1,2.345,2.3c-1.322,3.078-4.645,5.043-4.631,10,1.3-6.873,10.4-12.141,18.075-7.806a12.291,12.291,0,0,1-5.044,5.075,3.554,3.554,0,0,0-2.77-3.23,3.527,3.527,0,0,1,.423,4.267c-3.3,1.022-7.627.322-9.829,3.32,0,0,11.217-3.206,15.6,7.922-8.818.934-10.684-5.177-15.276-6.273,2.046,3.641,4.5,12.919.806,21.335a24.846,24.846,0,0,0-3.407-49.457Z" transform="translate(-2395.678 -1439.731)" fill="#0d9953"/>
</svg>
